<svg width="29" height="27" viewBox="0 0 29 27" fill="none" xmlns="http://www.w3.org/2000/svg">
<path d="M26.3274 21.3666L28.7321 17.401L18.524 11.2109L22.4542 4.72943L21.2344 0.83623L17.2182 1.55449L13.288 8.03601L3.07979 1.84599L0.675076 5.81167L10.1474 13.2151L8.0484 16.6767L6.05088 15.4655L5.0364 17.1385L7.28659 18.5029L6.52902 22.3835L4.62814 21.2309L3.6137 22.9038L6.12963 24.4294L5.75054 26.3711L7.29704 25.1373L9.81297 26.6629L10.8274 24.9899L8.92654 23.8372L12.0173 21.3715L14.2675 22.7359L15.2819 21.0629L13.2844 19.8517L15.3834 16.3901L26.3274 21.3666Z" fill="white"/>
</svg>
