<svg width="24" height="18" viewBox="0 0 24 18" fill="none" xmlns="http://www.w3.org/2000/svg">
<path d="M23.872 5.35856C20.7062 2.19224 16.4895 0.448669 12.0001 0.448669C7.51071 0.448669 3.29449 2.1918 0.128178 5.35856C-0.042726 5.52946 -0.042726 5.8057 0.128178 5.97661C0.299082 6.14751 0.575326 6.14751 0.74623 5.97661C3.74732 2.97508 7.74412 1.32242 12.0001 1.32242C16.2561 1.32242 20.2529 2.97508 23.254 5.97617C23.3392 6.0614 23.4511 6.10424 23.563 6.10424C23.6749 6.10424 23.7868 6.0614 23.872 5.97617C24.0429 5.8057 24.0429 5.52902 23.872 5.35856Z" fill="white"/>
<path d="M2.69751 7.92736C2.52661 8.09827 2.52661 8.37451 2.69751 8.54541C2.78275 8.63065 2.89464 8.67348 3.00654 8.67348C3.11844 8.67348 3.23033 8.63065 3.31557 8.54541C8.10394 3.75661 15.8956 3.75661 20.6844 8.54541C20.8553 8.71632 21.1315 8.71632 21.3025 8.54541C21.4734 8.37451 21.4734 8.09827 21.3025 7.92736C16.1736 2.79849 7.82726 2.79762 2.69751 7.92736Z" fill="white"/>
<path d="M11.9999 7.71228C9.45378 7.71228 7.06287 8.70143 5.26685 10.497C5.09595 10.6679 5.09595 10.9442 5.26685 11.1151C5.43775 11.286 5.714 11.286 5.8849 11.1151C7.5157 9.4847 9.68719 8.58647 11.9999 8.58647C14.3125 8.58647 16.484 9.4847 18.1148 11.1151C18.2 11.2003 18.3119 11.2431 18.4238 11.2431C18.5357 11.2431 18.6476 11.2003 18.7329 11.1151C18.9038 10.9442 18.9038 10.6679 18.7329 10.497C16.9373 8.70143 14.5459 7.71228 11.9999 7.71228Z" fill="white"/>
<path d="M12.0001 11.8245C10.4213 11.8245 9.13672 13.1091 9.13672 14.6884C9.13672 16.2676 10.4213 17.5522 12.0001 17.5522C13.5794 17.5522 14.864 16.2676 14.864 14.6884C14.864 13.1091 13.5794 11.8245 12.0001 11.8245Z" fill="white"/>
</svg>
