<svg width="24" height="24" viewBox="0 0 24 24" fill="none" xmlns="http://www.w3.org/2000/svg">
<g clip-path="url(#clip0_142_856)">
<path d="M23.872 8.35856C20.7062 5.19224 16.4895 3.44867 12.0001 3.44867C7.51071 3.44867 3.29449 5.1918 0.128178 8.35856C-0.042726 8.52946 -0.042726 8.8057 0.128178 8.97661C0.299082 9.14751 0.575326 9.14751 0.74623 8.97661C3.74732 5.97508 7.74412 4.32242 12.0001 4.32242C16.2561 4.32242 20.2529 5.97508 23.254 8.97617C23.3392 9.0614 23.4511 9.10424 23.563 9.10424C23.6749 9.10424 23.7868 9.0614 23.872 8.97617C24.0429 8.8057 24.0429 8.52902 23.872 8.35856Z" fill="#716161"/>
<path d="M2.69751 10.9274C2.52661 11.0983 2.52661 11.3745 2.69751 11.5454C2.78275 11.6306 2.89464 11.6735 3.00654 11.6735C3.11844 11.6735 3.23033 11.6306 3.31557 11.5454C8.10394 6.75661 15.8956 6.75661 20.6844 11.5454C20.8553 11.7163 21.1315 11.7163 21.3025 11.5454C21.4734 11.3745 21.4734 11.0983 21.3025 10.9274C16.1736 5.79849 7.82726 5.79762 2.69751 10.9274Z" fill="#716161"/>
<path d="M12.0003 10.7123C9.45427 10.7123 7.06336 11.7014 5.26734 13.497C5.09643 13.6679 5.09643 13.9442 5.26734 14.1151C5.43824 14.286 5.71449 14.286 5.88539 14.1151C7.51619 12.4847 9.68768 11.5865 12.0003 11.5865C14.313 11.5865 16.4845 12.4847 18.1153 14.1151C18.2005 14.2003 18.3124 14.2431 18.4243 14.2431C18.5362 14.2431 18.6481 14.2003 18.7334 14.1151C18.9043 13.9442 18.9043 13.6679 18.7334 13.497C16.9378 11.7014 14.5464 10.7123 12.0003 10.7123Z" fill="#716161"/>
<path d="M12.0001 14.8245C10.4213 14.8245 9.13672 16.1091 9.13672 17.6884C9.13672 19.2676 10.4213 20.5522 12.0001 20.5522C13.5794 20.5522 14.864 19.2676 14.864 17.6884C14.864 16.1091 13.5794 14.8245 12.0001 14.8245Z" fill="#716161"/>
</g>
<defs>
<clipPath id="clip0_142_856">
<rect width="24" height="24" fill="white"/>
</clipPath>
</defs>
</svg>
